<svg width="25" height="24" viewBox="0 0 25 24" fill="none" xmlns="http://www.w3.org/2000/svg">
<path fill-rule="evenodd" clip-rule="evenodd" d="M23.6448 12.2685C23.6448 11.4176 23.5684 10.5994 23.4266 9.81398H12.125V14.4557H18.5831C18.3049 15.9557 17.4594 17.2266 16.1886 18.0775V21.0883H20.0667C22.3357 18.9993 23.6448 15.923 23.6448 12.2685Z" fill="#4285F4"/>
<path fill-rule="evenodd" clip-rule="evenodd" d="M12.1248 23.9965C15.3647 23.9965 18.081 22.9219 20.0665 21.0892L16.1883 18.0784C15.1138 18.7984 13.7393 19.2238 12.1248 19.2238C8.9994 19.2238 6.354 17.113 5.41038 14.2766H1.40137V17.3857C3.37587 21.3074 7.43398 23.9965 12.1248 23.9965Z" fill="#34A853"/>
<path fill-rule="evenodd" clip-rule="evenodd" d="M5.4106 14.276C5.1706 13.556 5.03424 12.7869 5.03424 11.996C5.03424 11.2051 5.1706 10.436 5.4106 9.71604V6.60701H1.40158C0.588871 8.22698 0.125244 10.0597 0.125244 11.996C0.125244 13.9323 0.588871 15.765 1.40158 17.385L5.4106 14.276Z" fill="#FBBC05"/>
<path fill-rule="evenodd" clip-rule="evenodd" d="M12.1248 4.76909C13.8866 4.76909 15.4684 5.37454 16.712 6.5636L20.1537 3.12185C18.0756 1.18553 15.3593 -0.00354004 12.1248 -0.00354004C7.43398 -0.00354004 3.37587 2.6855 1.40137 6.60724L5.41038 9.71627C6.354 6.87996 8.9994 4.76909 12.1248 4.76909Z" fill="#EA4335"/>
</svg>
