<svg width="327" height="242" viewBox="0 0 327 242" fill="none" xmlns="http://www.w3.org/2000/svg">
<g clip-path="url(#clip0_195_11953)">
<path d="M41.7383 38.4957C52.0147 38.4957 60.3454 29.9072 60.3454 19.3128C60.3454 8.71837 52.0147 0.129883 41.7383 0.129883C31.4618 0.129883 23.1311 8.71837 23.1311 19.3128C23.1311 29.9072 31.4618 38.4957 41.7383 38.4957Z" fill="#E2CC7D"/>
<path d="M260.29 196.442C253.803 196.442 247.527 194.069 242.577 189.748C237.627 185.426 234.324 179.434 233.256 172.838L233.233 172.698L233.321 172.59C234.775 170.792 235.998 168.807 236.957 166.685C235.897 167.877 234.695 168.928 233.381 169.812L232.943 170.113L232.917 169.571C232.895 169.103 232.884 168.638 232.884 168.189C232.882 165.551 233.235 162.925 233.934 160.387C237.115 148.858 237.659 136.478 235.551 123.59C235.191 121.38 235.01 119.143 235.01 116.902C235.013 107.432 238.286 98.2732 244.242 91.0643C250.199 83.8555 258.45 79.068 267.518 77.559C276.586 76.0501 285.879 77.9182 293.733 82.8289C301.587 87.7397 307.489 95.3723 310.382 104.36L310.47 104.634L310.21 104.742C308.262 105.593 306.196 106.121 304.088 106.308C306.316 106.837 308.601 107.063 310.885 106.981L311.126 106.973L311.185 107.215C311.951 110.383 312.338 113.637 312.338 116.902L312.336 117.256C312.329 119.757 312.833 122.231 313.816 124.517C314.798 126.804 316.237 128.851 318.039 130.526C320.966 133.272 323.282 136.639 324.827 140.396C326.372 144.153 327.109 148.211 326.987 152.289C326.866 156.368 325.889 160.371 324.123 164.023C322.358 167.675 319.846 170.889 316.76 173.445L316.617 173.564L316.45 173.485C312.921 171.835 310.35 170.036 308.469 167.89C309.723 170.644 311.411 173.166 313.464 175.352L313.729 175.634L313.4 175.832C309.209 178.351 304.445 179.677 299.595 179.675L299.457 179.675C299.408 179.674 299.359 179.674 299.31 179.674C291.89 179.674 284.857 182.632 279.994 187.804C277.433 190.523 274.371 192.689 270.987 194.172C267.603 195.655 263.967 196.427 260.29 196.442Z" fill="#F2F2F2"/>
<path d="M250.591 240.959C250.472 240.959 250.357 240.914 250.267 240.834C250.178 240.753 250.119 240.642 250.102 240.521C250.081 240.369 248.023 225.065 249.871 204.725C251.579 185.941 257.061 158.885 273.484 136.664C273.524 136.611 273.573 136.566 273.629 136.533C273.685 136.499 273.747 136.477 273.812 136.468C273.876 136.459 273.941 136.463 274.004 136.48C274.067 136.497 274.126 136.527 274.178 136.568C274.229 136.608 274.273 136.659 274.305 136.717C274.338 136.775 274.359 136.839 274.368 136.905C274.377 136.971 274.373 137.039 274.356 137.104C274.339 137.168 274.311 137.229 274.271 137.282C257.99 159.311 252.552 186.168 250.856 204.82C249.019 225.041 251.061 240.226 251.082 240.377C251.091 240.449 251.086 240.523 251.066 240.593C251.046 240.663 251.012 240.728 250.965 240.783C250.919 240.838 250.861 240.883 250.797 240.913C250.732 240.943 250.662 240.959 250.591 240.959Z" fill="#3F3D56"/>
<path d="M258.801 166.046C258.697 166.046 258.595 166.012 258.51 165.949C258.426 165.886 258.363 165.796 258.33 165.694C258.298 165.591 258.298 165.481 258.33 165.379C258.363 165.276 258.425 165.187 258.51 165.124C263.19 161.858 268.245 159.205 273.56 157.225C281.863 154.092 294.489 151.25 307.488 155.515C307.55 155.536 307.607 155.568 307.657 155.611C307.706 155.655 307.747 155.708 307.777 155.767C307.807 155.826 307.825 155.891 307.831 155.958C307.836 156.025 307.829 156.092 307.809 156.156C307.789 156.22 307.758 156.279 307.716 156.33C307.674 156.381 307.623 156.423 307.565 156.454C307.507 156.485 307.444 156.504 307.379 156.509C307.315 156.515 307.25 156.507 307.188 156.487C294.455 152.31 282.058 155.104 273.9 158.183C268.671 160.129 263.696 162.737 259.092 165.949C259.007 166.012 258.906 166.046 258.801 166.046Z" fill="#3F3D56"/>
<path d="M57.8495 203.089C53.2353 203.081 45.9708 203.465 42.0138 205.618C38.973 207.274 36.2038 209.413 33.8077 211.956C32.8841 212.94 32.0094 213.971 31.1868 215.046C28.9112 207.02 28.6463 198.53 30.417 190.37C30.5415 189.821 30.5005 189.246 30.2997 188.721C30.0988 188.196 29.7475 187.747 29.2927 187.433C28.8378 187.12 28.3011 186.957 27.754 186.966C27.2069 186.975 26.6754 187.155 26.2306 187.484C19.8022 192.317 15.6924 200.507 14.6929 208.793C13.4194 219.35 16.4181 229.989 20.5858 239.724L20.5845 239.729C20.5768 239.773 20.5651 239.821 20.5536 239.868C20.5382 239.94 20.5189 240.011 20.5035 240.083C20.4764 240.206 20.4457 240.333 20.4186 240.457L21.0934 240.425C21.132 240.445 21.1706 240.461 21.209 240.481H38.1112C38.3352 240.229 38.5438 239.963 38.7359 239.685C40.6063 237.042 41.3813 233.46 42.3262 230.227C43.0105 227.887 43.8665 225.604 44.8868 223.397C47.4559 217.855 51.0007 212.852 55.3411 208.644C55.4799 208.509 55.6227 208.373 55.7654 208.242C56.4923 207.553 57.6192 206.631 58.7204 205.766C58.961 205.577 59.1382 205.316 59.2271 205.018C59.3161 204.72 59.3122 204.401 59.2161 204.106C59.1199 203.81 58.9364 203.553 58.6913 203.371C58.4462 203.189 58.1518 203.09 57.8495 203.089Z" fill="#F2F2F2"/>
<path d="M171.97 38.7908C172.367 39.9369 172.312 41.1982 171.816 42.3027C171.32 43.4072 170.422 44.2664 169.317 44.6951C169.073 44.7892 168.821 44.8609 168.564 44.9092L166.01 61.0334L160.018 55.3297L163.362 40.8923C163.238 39.6757 163.584 38.4578 164.324 37.5018C165.064 36.5459 166.14 35.9287 167.318 35.7836C168.309 35.6665 169.31 35.9004 170.155 36.4468C171 36.9933 171.64 37.8199 171.97 38.7908Z" fill="#9E616A"/>
<path d="M127.749 75.3266C127.749 75.3266 132.4 68.9919 149.275 69.1655L158.854 65.5776L161.043 44.8901L168.705 46.7708L167.61 72.3481L151.192 82.1276L129.666 86.6412L127.749 75.3266Z" fill="#5869D1"/>
<path d="M101.818 231.282L106.239 233.224L115.61 216.57L109.085 213.703L101.818 231.282Z" fill="#9E616A"/>
<path d="M138.35 235.595L143.155 235.595L145.441 216.486L138.349 216.486L138.35 235.595Z" fill="#9E616A"/>
<path d="M138.18 240.763L152.957 240.762V240.57C152.957 238.997 152.351 237.489 151.273 236.377C150.194 235.265 148.731 234.64 147.206 234.64L144.506 232.529L139.47 234.64L138.18 234.641L138.18 240.763Z" fill="#2F2E41"/>
<path d="M99.1306 234.59L112.725 240.563L112.798 240.385C113.396 238.939 113.412 237.306 112.842 235.847C112.273 234.388 111.165 233.222 109.762 232.606L108.081 229.573L102.645 229.479L101.459 228.958L99.1306 234.59Z" fill="#2F2E41"/>
<path d="M143.063 122.505L150.366 168.35L148.379 175.181L150.987 180.02L147.157 222.512L148.712 226.041L144.368 228.802H135.529L135.06 190.334L132.877 184.686V181.573L128.432 158.116L127.614 184.948L126.321 190.605L127.407 194.633L125.988 197.454L113.827 224.375H103.916L104.683 218.287C102.907 217.36 107.349 214.651 107.775 212.647L106.316 209.261L107.775 202.867L109.114 190.372L107.702 163.998L108.366 128.482L119.961 119.342L143.063 122.505Z" fill="#2F2E41"/>
<path d="M125.278 62.1296C130.81 62.1296 135.294 57.5065 135.294 51.8037C135.294 46.1008 130.81 41.4778 125.278 41.4778C119.747 41.4778 115.262 46.1008 115.262 51.8037C115.262 57.5065 119.747 62.1296 125.278 62.1296Z" fill="#9E616A"/>
<path d="M107.875 141.521C108.155 141.002 108.322 140.426 108.364 139.834C108.405 139.241 108.32 138.647 108.115 138.092C107.909 137.537 107.588 137.035 107.174 136.622C106.76 136.209 106.263 135.894 105.718 135.701L105.695 121.26L99.6252 125.402L100.578 138.48C100.323 139.445 100.42 140.472 100.851 141.369C101.282 142.265 102.017 142.967 102.916 143.342C103.815 143.717 104.817 143.738 105.731 143.403C106.645 143.067 107.408 142.398 107.875 141.521Z" fill="#9E616A"/>
<path d="M107.314 77.6288L104.602 74.9343L102.61 76.4165C102.61 76.4165 100.65 78.841 99.0826 86.1146C97.5147 93.3882 99.0826 133.393 99.0826 133.393L107.706 132.181L106.53 111.168L110.057 93.3882L107.314 77.6288Z" fill="#5869D1"/>
<path d="M103.31 75.5917L112.445 71.0929L118.648 65.162L129.958 65.0747L133.606 69.9645L143.238 73.3376L141.633 107.578L142.728 110.211C142.728 110.211 141.965 110.921 141.617 111.318C141.268 111.716 142.098 115.041 142.098 115.041L142.566 118.658L141.268 119.614L142.955 121.669L143.374 124.907C143.374 124.907 113.925 117.361 108.361 129.862C108.067 130.522 108.791 124.068 108.791 124.068L109.515 119.342L108.797 115.101L107.702 113.972L109.538 112.08L108.361 103.1L103.31 75.5917Z" fill="#5869D1"/>
<path d="M198.665 231.079H193.243L190.664 209.522H198.665V231.079Z" fill="#FFB6B6"/>
<path d="M201.526 240.763H197.638L196.944 236.979L195.167 240.763H184.856C184.362 240.763 183.88 240.6 183.482 240.298C183.084 239.996 182.79 239.571 182.643 239.084C182.496 238.598 182.503 238.076 182.665 237.594C182.826 237.112 183.132 236.696 183.539 236.407L191.773 230.544V226.718L200.434 227.251L201.526 240.763Z" fill="#2F2E41"/>
<path d="M251.388 219.99L246.725 222.841L233.84 205.656L240.722 201.448L251.388 219.99Z" fill="#FFB6B6"/>
<path d="M258.641 226.815L255.297 228.859L252.827 225.969L253.171 230.159L244.302 235.581C243.877 235.841 243.382 235.954 242.891 235.904C242.399 235.853 241.935 235.642 241.568 235.301C241.201 234.96 240.949 234.507 240.849 234.008C240.75 233.509 240.807 232.99 241.014 232.527L245.196 223.154L243.303 219.864L251.016 215.767L258.641 226.815Z" fill="#2F2E41"/>
<path d="M196.245 93.2422L193.611 110.556L218.638 110.896L215.345 94.2608L196.245 93.2422Z" fill="#FFB6B6"/>
<path d="M193.514 110.338L186.366 128.21L185.845 176.006L191.945 221.641H198.696L201.462 176.75L208.265 146.034L214.974 178.16L235.836 209.605H246.088L227.241 174.954L225.059 137.207C225.059 137.207 226.419 121.194 219.461 111.745L217.768 106.7L193.514 110.338Z" fill="#2F2E41"/>
<path d="M228.528 123.387C227.832 123.191 227.185 122.84 226.634 122.359C226.083 121.877 225.641 121.277 225.339 120.601C225.037 119.924 224.883 119.188 224.887 118.443C224.891 117.699 225.054 116.964 225.363 116.291L214.716 80.5052L222.547 78.9048L232.285 113.982C233.347 114.593 234.155 115.584 234.555 116.768C234.956 117.952 234.921 119.246 234.458 120.405C233.995 121.564 233.136 122.508 232.043 123.057C230.95 123.607 229.7 123.724 228.528 123.387Z" fill="#FFB6B6"/>
<path d="M215.898 105.813L197.186 96.8188C196.693 96.808 196.217 96.6308 195.831 96.3144C195.445 95.9981 195.17 95.56 195.049 95.0672C194.124 91.2921 192.089 87.0959 193.168 77.297C193.381 75.3987 193.961 73.5638 194.874 71.9007C195.787 70.2377 197.015 68.7803 198.483 67.6148C199.952 66.4493 201.633 65.5994 203.426 65.1153C205.219 64.6312 207.088 64.5228 208.923 64.7965C210.858 65.0821 212.713 65.7863 214.365 66.8629C216.018 67.9395 217.431 69.3642 218.512 71.0434C219.593 72.7226 220.317 74.6185 220.637 76.6067C220.958 78.5948 220.867 80.6303 220.37 82.5796C218.198 91.0816 218.431 100.173 218.184 103.667C218.147 104.173 217.951 104.652 217.625 105.031C217.3 105.411 216.863 105.67 216.381 105.769C216.238 105.799 216.092 105.814 215.946 105.814C215.93 105.814 215.914 105.814 215.898 105.813Z" fill="#5869D1"/>
<path d="M175.61 45.7112C175.506 45.9507 175.384 46.1814 175.245 46.401L184.192 68.0292L189.692 68.7248L189.759 77.4185L179.907 77.1626C179.111 77.1419 178.343 76.8556 177.718 76.3467C177.094 75.8378 176.646 75.1338 176.442 74.3402L169.811 48.4782C168.871 48.1894 168.04 47.6125 167.426 46.8243C166.812 46.0361 166.446 45.074 166.376 44.066C166.305 43.0579 166.534 42.0517 167.032 41.1811C167.53 40.3105 168.274 39.6169 169.163 39.1924C170.053 38.7679 171.047 38.6328 172.013 38.8049C172.979 38.977 173.871 39.4482 174.571 40.1559C175.271 40.8635 175.745 41.7741 175.931 42.7665C176.117 43.7588 176.005 44.7859 175.61 45.7112Z" fill="#FFB6B6"/>
<path d="M185.094 67.2585C185.316 67.0552 185.579 66.9038 185.863 66.8146C186.148 66.7254 186.448 66.7005 186.743 66.7417L197.035 68.1783C198.557 68.1579 200.024 68.7603 201.115 69.8536C202.207 70.9468 202.833 72.4415 202.857 74.0101C202.881 75.5786 202.3 77.0928 201.243 78.2208C200.185 79.3488 198.737 79.9984 197.216 80.0272L186.928 81.737C186.634 81.7858 186.334 81.7687 186.047 81.6871C185.761 81.6054 185.495 81.461 185.267 81.2636C185.039 81.0663 184.856 80.8208 184.728 80.5437C184.601 80.2666 184.533 79.9645 184.529 79.6579L184.396 68.8832C184.392 68.5766 184.453 68.2728 184.573 67.9924C184.693 67.712 184.871 67.4617 185.094 67.2585Z" fill="#5869D1"/>
<path d="M214.239 89.57C213.976 89.4273 213.746 89.2277 213.564 88.9849C213.383 88.7421 213.254 88.4617 213.187 88.163L210.849 77.7296C210.293 76.2697 210.321 74.642 210.927 73.2032C211.532 71.7644 212.667 70.6319 214.081 70.0541C215.496 69.4763 217.075 69.5003 218.472 70.1208C219.869 70.7412 220.971 71.9076 221.536 73.3642L226.726 82.6795C226.874 82.9453 226.965 83.241 226.992 83.5463C227.02 83.8516 226.983 84.1594 226.884 84.4487C226.786 84.738 226.628 85.002 226.422 85.2227C226.215 85.4435 225.965 85.6157 225.688 85.7279L215.96 89.668C215.683 89.7802 215.386 89.8296 215.089 89.8127C214.792 89.7958 214.502 89.713 214.239 89.57Z" fill="#5869D1"/>
<path d="M213.824 61.1173C218.952 58.2273 220.837 51.5987 218.034 46.312C215.23 41.0252 208.801 39.0823 203.673 41.9723C198.545 44.8623 196.66 51.4908 199.463 56.7776C202.266 62.0644 208.696 64.0073 213.824 61.1173Z" fill="#FFB6B6"/>
<path d="M201.469 47.1592C199.199 47.146 196.928 47.1328 194.658 47.1196C194.496 45.5244 195.185 43.9373 196.188 42.7117C197.192 41.486 198.491 40.5632 199.774 39.6556C201.076 38.7343 202.425 37.792 203.974 37.47C205.271 37.2001 206.612 37.3874 207.923 37.5753C209.662 37.8246 211.401 38.0738 213.139 38.323C215.048 38.5966 217.044 38.906 218.594 40.086C220.691 41.6816 220.155 45.3648 222.166 47.0726C228.24 52.2303 225.781 56.7345 225.894 61.4357C218.554 62.2295 211.213 63.0233 203.872 63.8171C203.076 63.9586 202.26 63.9341 201.472 63.7452C200.701 63.5023 199.995 62.8443 199.938 62.0153C199.874 61.0894 200.587 60.3315 201.165 59.6204C202.546 57.8573 203.374 55.7037 203.541 53.4445C203.708 51.1854 203.206 48.9272 202.101 46.9687L201.469 47.1592Z" fill="#2F2E41"/>
<path d="M122.716 61.6231C122.673 61.5262 122.631 61.4291 122.588 61.3315C122.604 61.3321 122.621 61.3345 122.637 61.3349L122.716 61.6231Z" fill="#2F2E41"/>
<path d="M114.984 41.9473C115.46 41.4848 116.078 41.2092 116.73 41.1689C117.378 41.1904 118.035 41.7935 117.901 42.4471C119.09 40.2755 120.984 38.6054 123.249 37.7297C125.514 36.8541 128.006 36.829 130.287 37.6587C131.897 38.2442 133.476 39.4156 133.845 41.1336C133.881 41.5847 134.012 42.0223 134.228 42.4163C134.415 42.627 134.658 42.7766 134.926 42.8467C135.195 42.9169 135.478 42.9045 135.739 42.8112L135.755 42.8063C135.845 42.7748 135.942 42.7717 136.033 42.7974C136.124 42.8232 136.206 42.8766 136.268 42.9508C136.329 43.025 136.368 43.1165 136.379 43.2135C136.389 43.3105 136.371 43.4086 136.327 43.495L135.872 44.3708C136.446 44.5027 137.042 44.4896 137.611 44.3326C137.705 44.3071 137.805 44.3123 137.896 44.3476C137.988 44.3828 138.066 44.4463 138.121 44.5294C138.176 44.6125 138.205 44.7111 138.203 44.8117C138.202 44.9123 138.17 45.0099 138.113 45.0912C137.356 46.1589 136.368 47.0296 135.227 47.6342C134.086 48.2387 132.824 48.5604 131.541 48.5736C129.721 48.5622 127.883 47.9156 126.112 48.347C125.426 48.5139 124.786 48.8368 124.238 49.2921C123.69 49.7474 123.247 50.3235 122.943 50.978C122.639 51.6326 122.48 52.3491 122.48 53.0749C122.479 53.8008 122.636 54.5175 122.939 55.1726C122.395 54.5591 121.344 54.7043 120.787 55.3059C120.531 55.6279 120.341 56.0008 120.23 56.4014C120.12 56.8019 120.09 57.2217 120.142 57.6347C120.291 58.8996 120.655 60.1274 121.218 61.2615C119.066 61.1933 116.987 60.4457 115.26 59.1199C113.533 57.794 112.243 55.9538 111.563 53.8476C110.883 51.7415 110.846 49.471 111.458 47.3428C112.07 45.2147 113.301 43.3314 114.984 41.9473Z" fill="#2F2E41"/>
<path d="M313.986 241.13H0.475641C0.360644 241.129 0.250474 241.082 0.169277 240.998C0.0880798 240.914 0.0424805 240.801 0.0424805 240.682C0.0424805 240.563 0.0880798 240.45 0.169277 240.366C0.250474 240.282 0.360644 240.234 0.475641 240.234H313.986C314.043 240.234 314.1 240.245 314.153 240.268C314.205 240.29 314.253 240.323 314.294 240.365C314.334 240.406 314.367 240.456 314.388 240.51C314.41 240.565 314.422 240.623 314.422 240.682C314.422 240.741 314.41 240.799 314.388 240.854C314.367 240.908 314.334 240.958 314.294 240.999C314.253 241.041 314.205 241.074 314.153 241.096C314.1 241.119 314.043 241.13 313.986 241.13Z" fill="#CCCCCC"/>
<path d="M75.3171 4.59466C66.2993 3.33801 56.0039 8.36304 53.6666 17.4297C53.0776 15.8177 52.0068 14.4404 50.6087 13.4969C49.2107 12.5533 47.558 12.0924 45.8892 12.1807C44.2205 12.269 42.6222 12.9019 41.3252 13.988C40.0282 15.0741 39.0997 16.5571 38.6738 18.2229L39.7062 18.9852C59.0312 23.2936 79.0356 23.2003 98.322 18.712C92.0493 11.9156 84.335 5.85128 75.3171 4.59466Z" fill="#F0F0F0"/>
<path d="M36.6433 30.172C27.6254 28.9154 17.3301 33.9404 14.9928 43.0071C14.4038 41.3951 13.3329 40.0178 11.9349 39.0743C10.5369 38.1307 8.88415 37.6698 7.2154 37.7581C5.54666 37.8464 3.94834 38.4793 2.65136 39.5654C1.35437 40.6515 0.425872 42.1345 0 43.8003L1.03241 44.5626C20.3574 48.871 40.3618 48.7777 59.6482 44.2894C53.3754 37.493 45.6611 31.4287 36.6433 30.172Z" fill="#F0F0F0"/>
</g>
<defs>
<clipPath id="clip0_195_11953">
<rect width="327" height="241" fill="white" transform="translate(0 0.129883)"/>
</clipPath>
</defs>
</svg>
