<svg width="171" height="36" viewBox="0 0 171 36" fill="none" xmlns="http://www.w3.org/2000/svg">
<path opacity="0.2" d="M31 16.2478V30.375H22V22.5C22 22.2016 21.8815 21.9155 21.6705 21.7045C21.4595 21.4935 21.1734 21.375 20.875 21.375H16.375C16.0766 21.375 15.7905 21.4935 15.5795 21.7045C15.3685 21.9155 15.25 22.2016 15.25 22.5V30.375H6.25V16.2478C6.25002 16.091 6.2828 15.936 6.34625 15.7926C6.4097 15.6492 6.50241 15.5207 6.61844 15.4153L17.8684 4.79248C18.0756 4.60394 18.3456 4.49945 18.6257 4.49945C18.9058 4.49945 19.1758 4.60394 19.383 4.79248L30.633 15.4153C30.7487 15.5209 30.8412 15.6494 30.9044 15.7928C30.9676 15.9361 31.0002 16.0911 31 16.2478Z" fill="white"/>
<path d="M34.375 29.25H32.125V16.2492C32.125 15.9378 32.0605 15.6298 31.9353 15.3446C31.8102 15.0595 31.6272 14.8034 31.398 14.5926L20.148 3.97827C20.1425 3.97347 20.1373 3.9683 20.1325 3.9628C19.7183 3.58611 19.1785 3.37738 18.6187 3.37738C18.0588 3.37738 17.519 3.58611 17.1048 3.9628L17.0894 3.97827L5.85203 14.5926C5.62281 14.8034 5.43984 15.0595 5.31469 15.3446C5.18955 15.6298 5.12495 15.9378 5.125 16.2492V29.25H2.875C2.57663 29.25 2.29048 29.3685 2.0795 29.5795C1.86853 29.7905 1.75 30.0766 1.75 30.375C1.75 30.6734 1.86853 30.9595 2.0795 31.1705C2.29048 31.3815 2.57663 31.5 2.875 31.5H34.375C34.6734 31.5 34.9595 31.3815 35.1705 31.1705C35.3815 30.9595 35.5 30.6734 35.5 30.375C35.5 30.0766 35.3815 29.7905 35.1705 29.5795C34.9595 29.3685 34.6734 29.25 34.375 29.25ZM7.375 16.2492L7.39047 16.2351L18.625 5.62499L29.8609 16.2323L29.8764 16.2464V29.25H23.125V22.5C23.125 21.9033 22.8879 21.331 22.466 20.909C22.044 20.487 21.4717 20.25 20.875 20.25H16.375C15.7783 20.25 15.206 20.487 14.784 20.909C14.3621 21.331 14.125 21.9033 14.125 22.5V29.25H7.375V16.2492ZM20.875 29.25H16.375V22.5H20.875V29.25Z" fill="white"/>
<path d="M45.7727 16V4.36364H47.8807V9.28977H53.2727V4.36364H55.3864V16H53.2727V11.0568H47.8807V16H45.7727ZM61.3949 16.1705C60.5426 16.1705 59.804 15.983 59.179 15.608C58.554 15.233 58.0691 14.7083 57.7244 14.0341C57.3835 13.3598 57.2131 12.572 57.2131 11.6705C57.2131 10.7689 57.3835 9.97917 57.7244 9.30114C58.0691 8.62311 58.554 8.09659 59.179 7.72159C59.804 7.34659 60.5426 7.15909 61.3949 7.15909C62.2472 7.15909 62.9858 7.34659 63.6108 7.72159C64.2358 8.09659 64.7188 8.62311 65.0597 9.30114C65.4044 9.97917 65.5767 10.7689 65.5767 11.6705C65.5767 12.572 65.4044 13.3598 65.0597 14.0341C64.7188 14.7083 64.2358 15.233 63.6108 15.608C62.9858 15.983 62.2472 16.1705 61.3949 16.1705ZM61.4062 14.5227C61.8684 14.5227 62.2547 14.3958 62.5653 14.142C62.8759 13.8845 63.107 13.5398 63.2585 13.108C63.4138 12.6761 63.4915 12.1951 63.4915 11.6648C63.4915 11.1307 63.4138 10.6477 63.2585 10.2159C63.107 9.7803 62.8759 9.43371 62.5653 9.17614C62.2547 8.91856 61.8684 8.78977 61.4062 8.78977C60.9328 8.78977 60.5388 8.91856 60.2244 9.17614C59.9138 9.43371 59.6809 9.7803 59.5256 10.2159C59.3741 10.6477 59.2983 11.1307 59.2983 11.6648C59.2983 12.1951 59.3741 12.6761 59.5256 13.108C59.6809 13.5398 59.9138 13.8845 60.2244 14.142C60.5388 14.3958 60.9328 14.5227 61.4062 14.5227ZM67.3224 16V7.27273H69.2884V8.75568H69.3906C69.5724 8.25568 69.8736 7.86553 70.294 7.58523C70.7145 7.30114 71.2164 7.15909 71.7997 7.15909C72.3906 7.15909 72.8887 7.30303 73.294 7.59091C73.7031 7.875 73.991 8.26326 74.1577 8.75568H74.2486C74.4418 8.27083 74.7675 7.88447 75.2259 7.59659C75.688 7.30492 76.2353 7.15909 76.8679 7.15909C77.6709 7.15909 78.3262 7.41288 78.8338 7.92045C79.3414 8.42803 79.5952 9.16856 79.5952 10.142V16H77.5327V10.4602C77.5327 9.91856 77.3887 9.52273 77.1009 9.27273C76.813 9.01894 76.4607 8.89205 76.044 8.89205C75.5478 8.89205 75.1596 9.04735 74.8793 9.35795C74.6027 9.66477 74.4645 10.0644 74.4645 10.5568V16H72.4474V10.375C72.4474 9.92424 72.3111 9.56439 72.0384 9.29545C71.7694 9.02651 71.4171 8.89205 70.9815 8.89205C70.6861 8.89205 70.4171 8.9678 70.1747 9.11932C69.9323 9.26705 69.7391 9.47727 69.5952 9.75C69.4512 10.0189 69.3793 10.3333 69.3793 10.6932V16H67.3224ZM85.5455 16.1705C84.6705 16.1705 83.9148 15.9886 83.2784 15.625C82.6458 15.2576 82.1591 14.7386 81.8182 14.0682C81.4773 13.3939 81.3068 12.6004 81.3068 11.6875C81.3068 10.7898 81.4773 10.0019 81.8182 9.32386C82.1629 8.64205 82.6439 8.11174 83.2614 7.73295C83.8788 7.35038 84.6042 7.15909 85.4375 7.15909C85.9754 7.15909 86.483 7.24621 86.9602 7.42045C87.4413 7.59091 87.8655 7.85606 88.233 8.21591C88.6042 8.57576 88.8958 9.03409 89.108 9.59091C89.3201 10.1439 89.4261 10.803 89.4261 11.5682V12.1989H82.2727V10.8125H87.4545C87.4508 10.4186 87.3655 10.0682 87.1989 9.76136C87.0322 9.45076 86.7992 9.20644 86.5 9.02841C86.2045 8.85038 85.8598 8.76136 85.4659 8.76136C85.0455 8.76136 84.6761 8.86364 84.358 9.06818C84.0398 9.26894 83.7917 9.53409 83.6136 9.86364C83.4394 10.1894 83.3504 10.5473 83.3466 10.9375V12.1477C83.3466 12.6553 83.4394 13.0909 83.625 13.4545C83.8106 13.8144 84.0701 14.0909 84.4034 14.2841C84.7367 14.4735 85.1269 14.5682 85.5739 14.5682C85.8731 14.5682 86.1439 14.5265 86.3864 14.4432C86.6288 14.3561 86.839 14.2292 87.017 14.0625C87.1951 13.8958 87.3295 13.6894 87.4205 13.4432L89.3409 13.6591C89.2197 14.1667 88.9886 14.6098 88.6477 14.9886C88.3106 15.3636 87.8788 15.6553 87.3523 15.8636C86.8258 16.0682 86.2235 16.1705 85.5455 16.1705ZM97.3338 4.36364V16H95.2259V4.36364H97.3338ZM101.582 10.8864V16H99.5256V7.27273H101.491V8.75568H101.594C101.795 8.26705 102.115 7.87879 102.554 7.59091C102.997 7.30303 103.545 7.15909 104.196 7.15909C104.798 7.15909 105.323 7.28788 105.77 7.54545C106.221 7.80303 106.569 8.17614 106.815 8.66477C107.065 9.15341 107.188 9.74621 107.185 10.4432V16H105.128V10.7614C105.128 10.178 104.976 9.72159 104.673 9.39205C104.374 9.0625 103.959 8.89773 103.429 8.89773C103.069 8.89773 102.749 8.97727 102.469 9.13636C102.192 9.29167 101.974 9.51705 101.815 9.8125C101.66 10.108 101.582 10.4659 101.582 10.8864ZM116.173 9.57955L114.298 9.78409C114.245 9.5947 114.152 9.41667 114.02 9.25C113.891 9.08333 113.717 8.94886 113.497 8.84659C113.277 8.74432 113.009 8.69318 112.69 8.69318C112.262 8.69318 111.902 8.78598 111.611 8.97159C111.323 9.1572 111.181 9.39773 111.185 9.69318C111.181 9.94697 111.274 10.1534 111.463 10.3125C111.656 10.4716 111.974 10.6023 112.418 10.7045L113.906 11.0227C114.732 11.2008 115.346 11.483 115.747 11.8693C116.152 12.2557 116.357 12.7614 116.361 13.3864C116.357 13.9356 116.196 14.4205 115.878 14.8409C115.563 15.2576 115.126 15.5833 114.565 15.8182C114.005 16.053 113.361 16.1705 112.634 16.1705C111.565 16.1705 110.705 15.947 110.054 15.5C109.402 15.0492 109.014 14.4223 108.889 13.6193L110.895 13.4261C110.986 13.8201 111.179 14.1174 111.474 14.3182C111.77 14.5189 112.154 14.6193 112.628 14.6193C113.116 14.6193 113.509 14.5189 113.804 14.3182C114.103 14.1174 114.253 13.8693 114.253 13.5739C114.253 13.3239 114.156 13.1174 113.963 12.9545C113.774 12.7917 113.478 12.6667 113.077 12.5795L111.588 12.267C110.751 12.0928 110.132 11.7992 109.73 11.3864C109.329 10.9697 109.13 10.4432 109.134 9.80682C109.13 9.26894 109.276 8.80303 109.571 8.40909C109.87 8.01136 110.285 7.70455 110.815 7.48864C111.349 7.26894 111.965 7.15909 112.662 7.15909C113.685 7.15909 114.49 7.37689 115.077 7.8125C115.668 8.24811 116.033 8.83712 116.173 9.57955ZM123.619 12.3295V7.27273H125.676V16H123.682V14.4489H123.591C123.394 14.9375 123.07 15.3371 122.619 15.6477C122.172 15.9583 121.621 16.1136 120.966 16.1136C120.394 16.1136 119.888 15.9867 119.449 15.733C119.013 15.4754 118.672 15.1023 118.426 14.6136C118.18 14.1212 118.057 13.5265 118.057 12.8295V7.27273H120.114V12.5114C120.114 13.0644 120.265 13.5038 120.568 13.8295C120.871 14.1553 121.269 14.3182 121.761 14.3182C122.064 14.3182 122.358 14.2443 122.642 14.0966C122.926 13.9489 123.159 13.7292 123.341 13.4375C123.527 13.142 123.619 12.7727 123.619 12.3295ZM127.791 16V7.27273H129.786V8.72727H129.876C130.036 8.22348 130.308 7.83523 130.695 7.5625C131.085 7.28598 131.53 7.14773 132.03 7.14773C132.143 7.14773 132.27 7.15341 132.411 7.16477C132.554 7.17235 132.674 7.18561 132.768 7.20455V9.09659C132.681 9.06629 132.543 9.03977 132.354 9.01705C132.168 8.99053 131.988 8.97727 131.814 8.97727C131.439 8.97727 131.102 9.05871 130.803 9.22159C130.507 9.38068 130.274 9.60227 130.104 9.88636C129.933 10.1705 129.848 10.4981 129.848 10.8693V16H127.791ZM136.49 16.1761C135.937 16.1761 135.439 16.0777 134.996 15.8807C134.556 15.6799 134.208 15.3845 133.95 14.9943C133.696 14.6042 133.57 14.1231 133.57 13.5511C133.57 13.0587 133.661 12.6515 133.842 12.3295C134.024 12.0076 134.272 11.75 134.587 11.5568C134.901 11.3636 135.255 11.2178 135.649 11.1193C136.047 11.017 136.458 10.9432 136.882 10.8977C137.393 10.8447 137.808 10.7973 138.126 10.7557C138.445 10.7102 138.676 10.642 138.82 10.5511C138.967 10.4564 139.041 10.3106 139.041 10.1136V10.0795C139.041 9.65152 138.914 9.32008 138.661 9.08523C138.407 8.85038 138.041 8.73295 137.564 8.73295C137.06 8.73295 136.661 8.8428 136.365 9.0625C136.073 9.2822 135.876 9.54167 135.774 9.84091L133.854 9.56818C134.005 9.03788 134.255 8.5947 134.604 8.23864C134.952 7.87879 135.378 7.60985 135.882 7.43182C136.386 7.25 136.943 7.15909 137.553 7.15909C137.973 7.15909 138.392 7.20833 138.808 7.30682C139.225 7.4053 139.606 7.56818 139.95 7.79545C140.295 8.01894 140.571 8.32386 140.78 8.71023C140.992 9.09659 141.098 9.57955 141.098 10.1591V16H139.121V14.8011H139.053C138.928 15.0436 138.751 15.2708 138.524 15.483C138.301 15.6913 138.018 15.8598 137.678 15.9886C137.34 16.1136 136.945 16.1761 136.49 16.1761ZM137.024 14.6648C137.437 14.6648 137.795 14.5833 138.098 14.4205C138.401 14.2538 138.634 14.0341 138.797 13.7614C138.964 13.4886 139.047 13.1913 139.047 12.8693V11.8409C138.982 11.8939 138.873 11.9432 138.717 11.9886C138.566 12.0341 138.395 12.0739 138.206 12.108C138.017 12.142 137.829 12.1723 137.643 12.1989C137.458 12.2254 137.297 12.2481 137.161 12.267C136.854 12.3087 136.579 12.3769 136.337 12.4716C136.094 12.5663 135.903 12.6989 135.763 12.8693C135.623 13.036 135.553 13.2519 135.553 13.517C135.553 13.8958 135.691 14.1818 135.967 14.375C136.244 14.5682 136.596 14.6648 137.024 14.6648ZM145.223 10.8864V16H143.166V7.27273H145.132V8.75568H145.234C145.435 8.26705 145.755 7.87879 146.195 7.59091C146.638 7.30303 147.185 7.15909 147.837 7.15909C148.439 7.15909 148.964 7.28788 149.411 7.54545C149.861 7.80303 150.21 8.17614 150.456 8.66477C150.706 9.15341 150.829 9.74621 150.825 10.4432V16H148.768V10.7614C148.768 10.178 148.617 9.72159 148.314 9.39205C148.015 9.0625 147.6 8.89773 147.07 8.89773C146.71 8.89773 146.39 8.97727 146.109 9.13636C145.833 9.29167 145.615 9.51705 145.456 9.8125C145.301 10.108 145.223 10.4659 145.223 10.8864ZM156.723 16.1705C155.852 16.1705 155.104 15.9792 154.479 15.5966C153.857 15.214 153.378 14.6856 153.041 14.0114C152.708 13.3333 152.541 12.553 152.541 11.6705C152.541 10.7841 152.712 10.0019 153.053 9.32386C153.393 8.64205 153.875 8.11174 154.496 7.73295C155.121 7.35038 155.859 7.15909 156.712 7.15909C157.42 7.15909 158.047 7.28977 158.592 7.55114C159.142 7.80871 159.579 8.17424 159.905 8.64773C160.231 9.11742 160.416 9.66667 160.462 10.2955H158.496C158.416 9.875 158.227 9.52462 157.928 9.24432C157.632 8.96023 157.236 8.81818 156.74 8.81818C156.32 8.81818 155.95 8.93182 155.632 9.15909C155.314 9.38258 155.066 9.70455 154.888 10.125C154.714 10.5455 154.626 11.0492 154.626 11.6364C154.626 12.2311 154.714 12.7424 154.888 13.1705C155.062 13.5947 155.306 13.9223 155.621 14.1534C155.939 14.3807 156.312 14.4943 156.74 14.4943C157.043 14.4943 157.314 14.4375 157.553 14.3239C157.795 14.2064 157.998 14.0379 158.161 13.8182C158.323 13.5985 158.435 13.3314 158.496 13.017H160.462C160.412 13.6345 160.231 14.1818 159.916 14.6591C159.602 15.1326 159.174 15.5038 158.632 15.7727C158.09 16.0379 157.454 16.1705 156.723 16.1705ZM166.014 16.1705C165.139 16.1705 164.384 15.9886 163.747 15.625C163.115 15.2576 162.628 14.7386 162.287 14.0682C161.946 13.3939 161.776 12.6004 161.776 11.6875C161.776 10.7898 161.946 10.0019 162.287 9.32386C162.632 8.64205 163.113 8.11174 163.73 7.73295C164.348 7.35038 165.073 7.15909 165.906 7.15909C166.444 7.15909 166.952 7.24621 167.429 7.42045C167.91 7.59091 168.334 7.85606 168.702 8.21591C169.073 8.57576 169.365 9.03409 169.577 9.59091C169.789 10.1439 169.895 10.803 169.895 11.5682V12.1989H162.741V10.8125H167.923C167.92 10.4186 167.834 10.0682 167.668 9.76136C167.501 9.45076 167.268 9.20644 166.969 9.02841C166.673 8.85038 166.329 8.76136 165.935 8.76136C165.514 8.76136 165.145 8.86364 164.827 9.06818C164.509 9.26894 164.26 9.53409 164.082 9.86364C163.908 10.1894 163.819 10.5473 163.815 10.9375V12.1477C163.815 12.6553 163.908 13.0909 164.094 13.4545C164.279 13.8144 164.539 14.0909 164.872 14.2841C165.205 14.4735 165.596 14.5682 166.043 14.5682C166.342 14.5682 166.613 14.5265 166.855 14.4432C167.098 14.3561 167.308 14.2292 167.486 14.0625C167.664 13.8958 167.798 13.6894 167.889 13.4432L169.81 13.6591C169.688 14.1667 169.457 14.6098 169.116 14.9886C168.779 15.3636 168.348 15.6553 167.821 15.8636C167.295 16.0682 166.692 16.1705 166.014 16.1705Z" fill="white"/>
<path d="M45.5838 21.2727H47.1818L49.9602 28.0568H50.0625L52.8409 21.2727H54.4389V30H53.1861V23.6847H53.1051L50.5312 29.9872H49.4915L46.9176 23.6804H46.8366V30H45.5838V21.2727ZM58.1559 30.1449C57.7411 30.1449 57.3661 30.0682 57.0309 29.9148C56.6957 29.7585 56.43 29.5327 56.234 29.2372C56.0408 28.9418 55.9442 28.5795 55.9442 28.1506C55.9442 27.7812 56.0153 27.4773 56.1573 27.2386C56.2994 27 56.4911 26.8111 56.7326 26.6719C56.9741 26.5327 57.244 26.4276 57.5423 26.3565C57.8406 26.2855 58.1445 26.2315 58.4542 26.1946C58.8462 26.1491 59.1644 26.1122 59.4087 26.0838C59.6531 26.0526 59.8306 26.0028 59.9414 25.9347C60.0522 25.8665 60.1076 25.7557 60.1076 25.6023V25.5724C60.1076 25.2003 60.0025 24.9119 59.7923 24.7074C59.5849 24.5028 59.2752 24.4006 58.8633 24.4006C58.4343 24.4006 58.0962 24.4957 57.8491 24.6861C57.6048 24.8736 57.4357 25.0824 57.342 25.3125L56.1445 25.0398C56.2866 24.642 56.494 24.321 56.7667 24.0767C57.0423 23.8295 57.359 23.6506 57.717 23.5398C58.0749 23.4261 58.4513 23.3693 58.8462 23.3693C59.1076 23.3693 59.3846 23.4006 59.6772 23.4631C59.9727 23.5227 60.2482 23.6335 60.5039 23.7955C60.7624 23.9574 60.9741 24.1889 61.1388 24.4901C61.3036 24.7884 61.386 25.1761 61.386 25.6534V30H60.1417V29.1051H60.0906C60.0082 29.2699 59.8846 29.4318 59.7198 29.5909C59.555 29.75 59.3434 29.8821 59.0849 29.9872C58.8263 30.0923 58.5167 30.1449 58.1559 30.1449ZM58.4329 29.1222C58.7852 29.1222 59.0863 29.0526 59.3363 28.9134C59.5891 28.7741 59.7809 28.5923 59.9116 28.3679C60.0451 28.1406 60.1119 27.8977 60.1119 27.6392V26.7955C60.0664 26.8409 59.9783 26.8835 59.8477 26.9233C59.7198 26.9602 59.5735 26.9929 59.4087 27.0213C59.244 27.0469 59.0835 27.071 58.9272 27.0938C58.771 27.1136 58.6403 27.1307 58.5352 27.1449C58.288 27.1761 58.0621 27.2287 57.8576 27.3026C57.6559 27.3764 57.494 27.483 57.3718 27.6222C57.2525 27.7585 57.1928 27.9403 57.1928 28.1676C57.1928 28.483 57.3093 28.7216 57.5423 28.8835C57.7752 29.0426 58.0721 29.1222 58.4329 29.1222ZM64.3572 26.1136V30H63.0831V23.4545H64.3061V24.5199H64.3871C64.5376 24.1733 64.7734 23.8949 65.0945 23.6847C65.4183 23.4744 65.826 23.3693 66.3175 23.3693C66.7635 23.3693 67.1541 23.4631 67.4893 23.6506C67.8246 23.8352 68.0845 24.1108 68.2692 24.4773C68.4538 24.8437 68.5462 25.2969 68.5462 25.8366V30H67.272V25.9901C67.272 25.5156 67.1484 25.1449 66.9013 24.8778C66.6541 24.608 66.3146 24.473 65.8828 24.473C65.5874 24.473 65.3246 24.5369 65.0945 24.6648C64.8672 24.7926 64.6868 24.9801 64.5533 25.2273C64.4226 25.4716 64.3572 25.767 64.3572 26.1136ZM72.1598 30.1449C71.745 30.1449 71.37 30.0682 71.0348 29.9148C70.6996 29.7585 70.4339 29.5327 70.2379 29.2372C70.0447 28.9418 69.9482 28.5795 69.9482 28.1506C69.9482 27.7812 70.0192 27.4773 70.1612 27.2386C70.3033 27 70.495 26.8111 70.7365 26.6719C70.978 26.5327 71.2479 26.4276 71.5462 26.3565C71.8445 26.2855 72.1484 26.2315 72.4581 26.1946C72.8501 26.1491 73.1683 26.1122 73.4126 26.0838C73.657 26.0526 73.8345 26.0028 73.9453 25.9347C74.0561 25.8665 74.1115 25.7557 74.1115 25.6023V25.5724C74.1115 25.2003 74.0064 24.9119 73.7962 24.7074C73.5888 24.5028 73.2791 24.4006 72.8672 24.4006C72.4382 24.4006 72.1001 24.4957 71.853 24.6861C71.6087 24.8736 71.4396 25.0824 71.3459 25.3125L70.1484 25.0398C70.2905 24.642 70.4979 24.321 70.7706 24.0767C71.0462 23.8295 71.3629 23.6506 71.7209 23.5398C72.0788 23.4261 72.4553 23.3693 72.8501 23.3693C73.1115 23.3693 73.3885 23.4006 73.6811 23.4631C73.9766 23.5227 74.2521 23.6335 74.5078 23.7955C74.7663 23.9574 74.978 24.1889 75.1428 24.4901C75.3075 24.7884 75.3899 25.1761 75.3899 25.6534V30H74.1456V29.1051H74.0945C74.0121 29.2699 73.8885 29.4318 73.7237 29.5909C73.5589 29.75 73.3473 29.8821 73.0888 29.9872C72.8303 30.0923 72.5206 30.1449 72.1598 30.1449ZM72.4368 29.1222C72.7891 29.1222 73.0902 29.0526 73.3402 28.9134C73.593 28.7741 73.7848 28.5923 73.9155 28.3679C74.049 28.1406 74.1158 27.8977 74.1158 27.6392V26.7955C74.0703 26.8409 73.9822 26.8835 73.8516 26.9233C73.7237 26.9602 73.5774 26.9929 73.4126 27.0213C73.2479 27.0469 73.0874 27.071 72.9311 27.0938C72.7749 27.1136 72.6442 27.1307 72.5391 27.1449C72.2919 27.1761 72.0661 27.2287 71.8615 27.3026C71.6598 27.3764 71.4979 27.483 71.3757 27.6222C71.2564 27.7585 71.1967 27.9403 71.1967 28.1676C71.1967 28.483 71.3132 28.7216 71.5462 28.8835C71.7791 29.0426 72.076 29.1222 72.4368 29.1222ZM79.8313 32.5909C79.3114 32.5909 78.864 32.5227 78.489 32.3864C78.1168 32.25 77.8129 32.0696 77.5771 31.8452C77.3413 31.6207 77.1651 31.375 77.0487 31.108L78.1438 30.6562C78.2205 30.7812 78.3228 30.9134 78.4506 31.0526C78.5813 31.1946 78.7575 31.3153 78.979 31.4148C79.2035 31.5142 79.4918 31.5639 79.8441 31.5639C80.3271 31.5639 80.7262 31.446 81.0415 31.2102C81.3569 30.9773 81.5146 30.6051 81.5146 30.0938V28.8068H81.4336C81.3569 28.946 81.2461 29.1009 81.1012 29.2713C80.9592 29.4418 80.7631 29.5895 80.5131 29.7145C80.2631 29.8395 79.9379 29.902 79.5373 29.902C79.0202 29.902 78.5543 29.7812 78.1396 29.5398C77.7276 29.2955 77.4009 28.9361 77.1594 28.4616C76.9208 27.9844 76.8015 27.3977 76.8015 26.7017C76.8015 26.0057 76.9194 25.4091 77.1552 24.9119C77.3938 24.4148 77.7205 24.0341 78.1353 23.7699C78.5501 23.5028 79.0202 23.3693 79.5458 23.3693C79.9521 23.3693 80.2802 23.4375 80.5302 23.5739C80.7802 23.7074 80.9748 23.8636 81.114 24.0426C81.256 24.2216 81.3654 24.3793 81.4421 24.5156H81.5359V23.4545H82.7844V30.1449C82.7844 30.7074 82.6538 31.169 82.3924 31.5298C82.131 31.8906 81.7773 32.1577 81.3313 32.331C80.8881 32.5043 80.3881 32.5909 79.8313 32.5909ZM79.8185 28.8452C80.185 28.8452 80.4947 28.7599 80.7475 28.5895C81.0032 28.4162 81.1964 28.169 81.3271 27.848C81.4606 27.5241 81.5273 27.1364 81.5273 26.6847C81.5273 26.2443 81.462 25.8565 81.3313 25.5213C81.2006 25.1861 81.0089 24.9247 80.756 24.7372C80.5032 24.5469 80.1907 24.4517 79.8185 24.4517C79.435 24.4517 79.1154 24.5511 78.8597 24.75C78.604 24.946 78.4109 25.2131 78.2802 25.5511C78.1523 25.8892 78.0884 26.267 78.0884 26.6847C78.0884 27.1136 78.1538 27.4901 78.2844 27.8139C78.4151 28.1378 78.6083 28.3906 78.864 28.5724C79.1225 28.7543 79.4407 28.8452 79.8185 28.8452ZM87.3143 30.1321C86.6694 30.1321 86.114 29.9943 85.6481 29.7188C85.185 29.4403 84.8271 29.0497 84.5742 28.5469C84.3242 28.0412 84.1992 27.4489 84.1992 26.7699C84.1992 26.0994 84.3242 25.5085 84.5742 24.9972C84.8271 24.4858 85.1793 24.0866 85.631 23.7997C86.0856 23.5128 86.6168 23.3693 87.2248 23.3693C87.5941 23.3693 87.9521 23.4304 88.2987 23.5526C88.6452 23.6747 88.9563 23.8665 89.2319 24.1278C89.5075 24.3892 89.7248 24.7287 89.8839 25.1463C90.043 25.5611 90.1225 26.0653 90.1225 26.6591V27.1108H84.9194V26.1562H88.8739C88.8739 25.821 88.8058 25.5241 88.6694 25.2656C88.533 25.0043 88.3413 24.7983 88.0941 24.6477C87.8498 24.4972 87.5629 24.4219 87.2333 24.4219C86.8754 24.4219 86.5629 24.5099 86.2958 24.6861C86.0316 24.8594 85.8271 25.0866 85.6822 25.3679C85.5401 25.6463 85.4691 25.9489 85.4691 26.2756V27.0213C85.4691 27.4588 85.5458 27.831 85.6992 28.1378C85.8555 28.4446 86.0728 28.679 86.3512 28.8409C86.6296 29 86.9549 29.0795 87.3271 29.0795C87.5685 29.0795 87.7887 29.0455 87.9876 28.9773C88.1864 28.9062 88.3583 28.8011 88.5032 28.6619C88.6481 28.5227 88.7589 28.3509 88.8356 28.1463L90.0415 28.3636C89.945 28.7187 89.7717 29.0298 89.5217 29.2969C89.2745 29.5611 88.9634 29.767 88.5884 29.9148C88.2163 30.0597 87.7915 30.1321 87.3143 30.1321ZM95.5174 32.4545C95.3271 32.4545 95.1538 32.4389 94.9975 32.4077C94.8413 32.3793 94.7248 32.348 94.6481 32.3139L94.9549 31.2699C95.1879 31.3324 95.3952 31.3594 95.5771 31.3509C95.7589 31.3423 95.9194 31.2741 96.0586 31.1463C96.2006 31.0185 96.3256 30.8097 96.4336 30.5199L96.5913 30.0852L94.1964 23.4545H95.56L97.2177 28.5341H97.2859L98.9435 23.4545H100.311L97.614 30.8736C97.489 31.2145 97.3299 31.5028 97.1367 31.7386C96.9435 31.9773 96.7134 32.1563 96.4464 32.2756C96.1793 32.3949 95.8697 32.4545 95.5174 32.4545ZM104.043 30.1321C103.43 30.1321 102.894 29.9915 102.437 29.7102C101.979 29.429 101.624 29.0355 101.371 28.5298C101.119 28.0241 100.992 27.4332 100.992 26.7571C100.992 26.0781 101.119 25.4844 101.371 24.9759C101.624 24.4673 101.979 24.0724 102.437 23.7912C102.894 23.5099 103.43 23.3693 104.043 23.3693C104.657 23.3693 105.192 23.5099 105.65 23.7912C106.107 24.0724 106.462 24.4673 106.715 24.9759C106.968 25.4844 107.094 26.0781 107.094 26.7571C107.094 27.4332 106.968 28.0241 106.715 28.5298C106.462 29.0355 106.107 29.429 105.65 29.7102C105.192 29.9915 104.657 30.1321 104.043 30.1321ZM104.048 29.0625C104.445 29.0625 104.775 28.9574 105.036 28.7472C105.298 28.5369 105.491 28.2571 105.616 27.9077C105.744 27.5582 105.808 27.1733 105.808 26.7528C105.808 26.3352 105.744 25.9517 105.616 25.6023C105.491 25.25 105.298 24.9673 105.036 24.7543C104.775 24.5412 104.445 24.4347 104.048 24.4347C103.647 24.4347 103.315 24.5412 103.05 24.7543C102.789 24.9673 102.594 25.25 102.467 25.6023C102.342 25.9517 102.279 26.3352 102.279 26.7528C102.279 27.1733 102.342 27.5582 102.467 27.9077C102.594 28.2571 102.789 28.5369 103.05 28.7472C103.315 28.9574 103.647 29.0625 104.048 29.0625ZM112.663 27.2855V23.4545H113.941V30H112.689V28.8665H112.62C112.47 29.2159 112.228 29.5071 111.896 29.7401C111.566 29.9702 111.156 30.0852 110.664 30.0852C110.244 30.0852 109.872 29.9929 109.548 29.8082C109.227 29.6207 108.974 29.3438 108.789 28.9773C108.608 28.6108 108.517 28.1577 108.517 27.6179V23.4545H109.791V27.4645C109.791 27.9105 109.914 28.2656 110.162 28.5298C110.409 28.794 110.73 28.9261 111.125 28.9261C111.363 28.9261 111.6 28.8665 111.836 28.7472C112.075 28.6278 112.272 28.4474 112.429 28.206C112.588 27.9645 112.666 27.6577 112.663 27.2855ZM115.653 30V23.4545H116.885V24.4943H116.953C117.072 24.142 117.283 23.8651 117.584 23.6634C117.888 23.4588 118.232 23.3565 118.615 23.3565C118.695 23.3565 118.788 23.3594 118.896 23.3651C119.007 23.3707 119.094 23.3778 119.156 23.3864V24.6051C119.105 24.5909 119.014 24.5753 118.884 24.5582C118.753 24.5384 118.622 24.5284 118.491 24.5284C118.19 24.5284 117.922 24.5923 117.686 24.7202C117.453 24.8452 117.268 25.0199 117.132 25.2443C116.996 25.4659 116.928 25.7187 116.928 26.0028V30H115.653ZM123.435 32.4545V23.4545H124.679V24.5156H124.786C124.859 24.3793 124.966 24.2216 125.105 24.0426C125.244 23.8636 125.438 23.7074 125.685 23.5739C125.932 23.4375 126.259 23.3693 126.665 23.3693C127.193 23.3693 127.665 23.5028 128.08 23.7699C128.494 24.0369 128.82 24.4219 129.055 24.9247C129.294 25.4276 129.413 26.0327 129.413 26.7401C129.413 27.4474 129.295 28.054 129.06 28.5597C128.824 29.0625 128.5 29.4503 128.088 29.723C127.676 29.9929 127.206 30.1278 126.678 30.1278C126.28 30.1278 125.955 30.0611 125.702 29.9276C125.452 29.794 125.256 29.6378 125.114 29.4588C124.972 29.2798 124.862 29.1207 124.786 28.9815H124.709V32.4545H123.435ZM124.683 26.7273C124.683 27.1875 124.75 27.5909 124.884 27.9375C125.017 28.2841 125.21 28.5554 125.463 28.7514C125.716 28.9446 126.026 29.0412 126.392 29.0412C126.773 29.0412 127.091 28.9403 127.347 28.7386C127.602 28.5341 127.795 28.2571 127.926 27.9077C128.06 27.5582 128.126 27.1648 128.126 26.7273C128.126 26.2955 128.061 25.9077 127.93 25.5639C127.803 25.2202 127.609 24.9489 127.351 24.75C127.095 24.5511 126.776 24.4517 126.392 24.4517C126.023 24.4517 125.71 24.5469 125.455 24.7372C125.202 24.9276 125.01 25.1932 124.879 25.5341C124.749 25.875 124.683 26.2727 124.683 26.7273ZM133.598 30.1321C132.984 30.1321 132.449 29.9915 131.991 29.7102C131.534 29.429 131.179 29.0355 130.926 28.5298C130.673 28.0241 130.547 27.4332 130.547 26.7571C130.547 26.0781 130.673 25.4844 130.926 24.9759C131.179 24.4673 131.534 24.0724 131.991 23.7912C132.449 23.5099 132.984 23.3693 133.598 23.3693C134.212 23.3693 134.747 23.5099 135.205 23.7912C135.662 24.0724 136.017 24.4673 136.27 24.9759C136.523 25.4844 136.649 26.0781 136.649 26.7571C136.649 27.4332 136.523 28.0241 136.27 28.5298C136.017 29.0355 135.662 29.429 135.205 29.7102C134.747 29.9915 134.212 30.1321 133.598 30.1321ZM133.602 29.0625C134 29.0625 134.33 28.9574 134.591 28.7472C134.852 28.5369 135.045 28.2571 135.17 27.9077C135.298 27.5582 135.362 27.1733 135.362 26.7528C135.362 26.3352 135.298 25.9517 135.17 25.6023C135.045 25.25 134.852 24.9673 134.591 24.7543C134.33 24.5412 134 24.4347 133.602 24.4347C133.202 24.4347 132.869 24.5412 132.605 24.7543C132.344 24.9673 132.149 25.25 132.021 25.6023C131.896 25.9517 131.834 26.3352 131.834 26.7528C131.834 27.1733 131.896 27.5582 132.021 27.9077C132.149 28.2571 132.344 28.5369 132.605 28.7472C132.869 28.9574 133.202 29.0625 133.602 29.0625ZM139.346 21.2727V30H138.071V21.2727H139.346ZM141.06 30V23.4545H142.334V30H141.06ZM141.703 22.4446C141.482 22.4446 141.291 22.3707 141.132 22.223C140.976 22.0724 140.898 21.8935 140.898 21.6861C140.898 21.4759 140.976 21.2969 141.132 21.1491C141.291 20.9986 141.482 20.9233 141.703 20.9233C141.925 20.9233 142.114 20.9986 142.27 21.1491C142.429 21.2969 142.509 21.4759 142.509 21.6861C142.509 21.8935 142.429 22.0724 142.27 22.223C142.114 22.3707 141.925 22.4446 141.703 22.4446ZM146.805 30.1321C146.172 30.1321 145.626 29.9886 145.169 29.7017C144.714 29.4119 144.365 29.0128 144.12 28.5043C143.876 27.9957 143.754 27.4134 143.754 26.7571C143.754 26.0923 143.879 25.5057 144.129 24.9972C144.379 24.4858 144.731 24.0866 145.186 23.7997C145.64 23.5128 146.176 23.3693 146.792 23.3693C147.289 23.3693 147.733 23.4616 148.122 23.6463C148.511 23.8281 148.825 24.0838 149.064 24.4134C149.305 24.7429 149.449 25.1278 149.494 25.5682H148.254C148.186 25.2614 148.029 24.9972 147.785 24.7756C147.544 24.554 147.22 24.4432 146.814 24.4432C146.458 24.4432 146.147 24.5369 145.88 24.7244C145.616 24.9091 145.41 25.1733 145.262 25.517C145.115 25.858 145.041 26.2614 145.041 26.7273C145.041 27.2045 145.113 27.6165 145.258 27.9631C145.403 28.3097 145.608 28.5781 145.872 28.7685C146.139 28.9588 146.453 29.054 146.814 29.054C147.055 29.054 147.274 29.0099 147.47 28.9219C147.669 28.831 147.835 28.7017 147.968 28.5341C148.105 28.3665 148.2 28.1648 148.254 27.929H149.494C149.449 28.3523 149.311 28.7301 149.081 29.0625C148.85 29.3949 148.542 29.6562 148.156 29.8466C147.772 30.0369 147.322 30.1321 146.805 30.1321ZM150.857 30V23.4545H152.131V30H150.857ZM151.5 22.4446C151.278 22.4446 151.088 22.3707 150.929 22.223C150.773 22.0724 150.695 21.8935 150.695 21.6861C150.695 21.4759 150.773 21.2969 150.929 21.1491C151.088 20.9986 151.278 20.9233 151.5 20.9233C151.722 20.9233 151.911 20.9986 152.067 21.1491C152.226 21.2969 152.305 21.4759 152.305 21.6861C152.305 21.8935 152.226 22.0724 152.067 22.223C151.911 22.3707 151.722 22.4446 151.5 22.4446ZM156.666 30.1321C156.021 30.1321 155.466 29.9943 155 29.7188C154.537 29.4403 154.179 29.0497 153.926 28.5469C153.676 28.0412 153.551 27.4489 153.551 26.7699C153.551 26.0994 153.676 25.5085 153.926 24.9972C154.179 24.4858 154.531 24.0866 154.983 23.7997C155.437 23.5128 155.968 23.3693 156.576 23.3693C156.946 23.3693 157.304 23.4304 157.65 23.5526C157.997 23.6747 158.308 23.8665 158.583 24.1278C158.859 24.3892 159.076 24.7287 159.235 25.1463C159.395 25.5611 159.474 26.0653 159.474 26.6591V27.1108H154.271V26.1562H158.225C158.225 25.821 158.157 25.5241 158.021 25.2656C157.885 25.0043 157.693 24.7983 157.446 24.6477C157.201 24.4972 156.914 24.4219 156.585 24.4219C156.227 24.4219 155.914 24.5099 155.647 24.6861C155.383 24.8594 155.179 25.0866 155.034 25.3679C154.892 25.6463 154.821 25.9489 154.821 26.2756V27.0213C154.821 27.4588 154.897 27.831 155.051 28.1378C155.207 28.4446 155.424 28.679 155.703 28.8409C155.981 29 156.306 29.0795 156.679 29.0795C156.92 29.0795 157.14 29.0455 157.339 28.9773C157.538 28.9062 157.71 28.8011 157.855 28.6619C158 28.5227 158.11 28.3509 158.187 28.1463L159.393 28.3636C159.297 28.7187 159.123 29.0298 158.873 29.2969C158.626 29.5611 158.315 29.767 157.94 29.9148C157.568 30.0597 157.143 30.1321 156.666 30.1321ZM165.793 25.0526L164.638 25.2571C164.589 25.1094 164.513 24.9687 164.408 24.8352C164.305 24.7017 164.166 24.5923 163.99 24.5071C163.814 24.4219 163.594 24.3793 163.33 24.3793C162.969 24.3793 162.668 24.4602 162.426 24.6222C162.185 24.7812 162.064 24.9872 162.064 25.2401C162.064 25.4588 162.145 25.6349 162.307 25.7685C162.469 25.902 162.73 26.0114 163.091 26.0966L164.131 26.3352C164.733 26.4744 165.182 26.6889 165.477 26.9787C165.773 27.2685 165.92 27.6449 165.92 28.108C165.92 28.5 165.807 28.8494 165.58 29.1562C165.355 29.4602 165.041 29.6989 164.638 29.8722C164.237 30.0455 163.773 30.1321 163.244 30.1321C162.511 30.1321 161.913 29.9759 161.45 29.6634C160.987 29.348 160.703 28.9006 160.598 28.321L161.83 28.1335C161.906 28.4545 162.064 28.6974 162.303 28.8622C162.541 29.0241 162.852 29.1051 163.236 29.1051C163.653 29.1051 163.987 29.0185 164.237 28.8452C164.487 28.669 164.612 28.4545 164.612 28.2017C164.612 27.9972 164.536 27.8253 164.382 27.6861C164.232 27.5469 164 27.4418 163.688 27.3707L162.58 27.1278C161.969 26.9886 161.517 26.767 161.224 26.4631C160.935 26.1591 160.79 25.7741 160.79 25.3082C160.79 24.9219 160.898 24.5838 161.114 24.294C161.33 24.0043 161.628 23.7784 162.009 23.6165C162.389 23.4517 162.825 23.3693 163.317 23.3693C164.024 23.3693 164.581 23.5227 164.987 23.8295C165.393 24.1335 165.662 24.5412 165.793 25.0526Z" fill="white"/>
</svg>
