<svg width="344" height="205" viewBox="0 0 344 205" fill="none" xmlns="http://www.w3.org/2000/svg">
<g clip-path="url(#clip0_75_18691)">
<path d="M263.484 202.682C259.092 198.972 256.425 193.113 257.125 187.408C257.824 181.703 262.157 176.459 267.777 175.248C273.397 174.036 279.803 177.39 281.51 182.878C282.449 172.297 283.532 161.273 289.159 152.262C294.255 144.103 303.08 138.265 312.644 137.221C322.209 136.177 332.279 140.121 338.244 147.668C344.209 155.215 345.67 166.186 341.492 174.85C338.414 181.233 332.744 185.983 326.804 189.848C307.607 202.23 284.582 207.265 261.967 204.027L263.484 202.682Z" fill="#B6C0FF"/>
<path d="M328.786 140.34C320.894 146.766 313.654 153.953 307.171 161.797C297.024 174.031 288.813 187.747 282.825 202.468C282.386 203.542 284.131 204.01 284.564 202.948C294.363 179.023 310.006 157.936 330.062 141.615C330.962 140.882 329.679 139.613 328.786 140.34Z" fill="white"/>
<path d="M111.292 201.674C117.324 196.579 120.987 188.531 120.027 180.695C119.066 172.86 113.115 165.657 105.396 163.993C97.677 162.329 88.8778 166.935 86.5333 174.473C85.243 159.94 83.7561 144.799 76.0271 132.423C69.0286 121.216 56.9071 113.198 43.7702 111.763C30.6332 110.329 16.8017 115.747 8.60869 126.112C0.415657 136.478 -1.59037 151.547 4.14781 163.448C8.37493 172.214 16.1628 178.738 24.3225 184.046C50.3548 200.98 82.6479 208.042 113.375 203.522" fill="#B6C0FF"/>
<path d="M21.5996 116.047C32.4392 124.873 42.3834 134.745 51.2883 145.519C60.1947 156.281 68.0358 167.882 74.7015 180.159C78.4273 187.045 81.7742 194.13 84.7275 201.381C85.3296 202.856 82.9336 203.498 82.3382 202.039C77.1073 189.255 70.6357 177.015 63.0162 165.493C55.4337 154.013 46.7552 143.295 37.1025 133.491C31.6429 127.948 25.8825 122.709 19.8475 117.799C18.6105 116.792 20.3728 115.049 21.5996 116.047Z" fill="white"/>
<path d="M247.086 204.551H103.184V56.9512C103.184 25.5481 128.74 0 160.153 0H190.116C221.53 0 247.086 25.5481 247.086 56.9512V204.551Z" fill="#CED5FA"/>
<path d="M217.123 204.551H103.184V56.9512C103.152 44.9182 106.964 33.1894 114.063 23.4724C114.325 23.1158 114.586 22.7638 114.855 22.4157C118.289 17.9132 122.376 13.948 126.98 10.6508C127.24 10.4616 127.501 10.2757 127.766 10.0898C131.619 7.42453 135.787 5.2457 140.174 3.60293C140.435 3.5042 140.7 3.40528 140.965 3.31041C144.934 1.89474 149.047 0.925009 153.23 0.41913C153.489 0.383718 153.756 0.356007 154.022 0.328297C158.098 -0.107398 162.209 -0.107398 166.285 0.328297C166.551 0.356007 166.817 0.383715 167.079 0.419509C171.261 0.925421 175.373 1.89503 179.341 3.31042C179.606 3.4053 179.871 3.50421 180.133 3.60313C184.466 5.22518 188.585 7.3715 192.396 9.9942C192.661 10.1761 192.926 10.362 193.187 10.5479C195.768 12.3895 198.192 14.4412 200.435 16.682C202.234 18.4794 203.91 20.3953 205.452 22.4169C205.72 22.7639 205.981 23.1158 206.242 23.4719C213.342 33.189 217.154 44.918 217.123 56.9512V204.551Z" fill="#EDF0FE"/>
<path d="M207.858 138.535C211.342 138.535 214.166 135.712 214.166 132.229C214.166 128.746 211.342 125.923 207.858 125.923C204.374 125.923 201.55 128.746 201.55 132.229C201.55 135.712 204.374 138.535 207.858 138.535Z" fill="#5869D1"/>
<path d="M235.297 200.13H230.464L228.164 181.493L235.298 181.493L235.297 200.13Z" fill="#FFB8B8"/>
<path d="M227.011 198.75H236.333V204.617H221.142C221.142 203.846 221.294 203.083 221.589 202.372C221.884 201.66 222.316 201.013 222.861 200.468C223.406 199.923 224.053 199.491 224.765 199.196C225.477 198.901 226.241 198.75 227.011 198.75Z" fill="#2F2E41"/>
<path d="M259.347 200.13H254.513L252.214 181.493L259.348 181.493L259.347 200.13Z" fill="#FFB8B8"/>
<path d="M251.061 198.75H260.382V204.617H245.191C245.191 203.846 245.343 203.083 245.638 202.372C245.933 201.66 246.365 201.013 246.91 200.468C247.455 199.923 248.102 199.491 248.815 199.196C249.527 198.901 250.29 198.75 251.061 198.75Z" fill="#2F2E41"/>
<path d="M211.05 133.478C210.703 132.966 210.471 132.384 210.373 131.773C210.275 131.162 210.312 130.537 210.481 129.941C210.651 129.346 210.949 128.795 211.354 128.327C211.76 127.86 212.263 127.487 212.829 127.234L229.259 81.9623L237.344 86.3732L218.584 129.637C218.945 130.614 218.935 131.69 218.555 132.661C218.175 133.631 217.453 134.429 216.524 134.903C215.595 135.376 214.525 135.493 213.516 135.23C212.508 134.968 211.63 134.344 211.05 133.478Z" fill="#FFB8B8"/>
<path d="M256.878 141.985C256.341 141.677 255.877 141.255 255.521 140.749C255.165 140.243 254.924 139.665 254.815 139.056C254.706 138.446 254.732 137.821 254.892 137.222C255.051 136.624 255.34 136.068 255.737 135.594L250.647 87.7039L259.848 88.1241L261.963 135.23C262.717 135.951 263.179 136.922 263.264 137.961C263.348 139 263.049 140.033 262.422 140.866C261.795 141.699 260.884 142.272 259.863 142.479C258.841 142.685 257.779 142.509 256.878 141.985Z" fill="#FFB8B8"/>
<path d="M242.199 73.5768C247.547 73.5768 251.883 69.2429 251.883 63.8967C251.883 58.5505 247.547 54.2166 242.199 54.2166C236.851 54.2166 232.516 58.5505 232.516 63.8967C232.516 69.2429 236.851 73.5768 242.199 73.5768Z" fill="#FFB8B8"/>
<path d="M256.816 131.094H227.623L227.658 130.866C227.71 130.527 232.861 96.7987 229.062 85.7643C228.681 84.68 228.715 83.493 229.156 82.4318C229.598 81.3707 230.417 80.5104 231.455 80.0166C236.885 77.4605 247.307 74.3131 256.104 81.9514C257.398 83.0939 258.409 84.5218 259.056 86.1222C259.704 87.7226 259.97 89.4515 259.833 91.1724L256.816 131.094Z" fill="#5869D1"/>
<path d="M233.23 101.783L220.087 99.1176L226.247 84.5232C226.616 83.1097 227.53 81.9 228.79 81.1596C230.05 80.4191 231.552 80.2084 232.967 80.5735C234.382 80.9387 235.594 81.8499 236.338 83.1074C237.081 84.3648 237.296 85.8658 236.934 87.2811L233.23 101.783Z" fill="#5869D1"/>
<path d="M250.063 106.732L249.273 88.6258C248.673 85.222 250.622 82.0043 253.62 81.4784C256.619 80.9544 259.546 83.3151 260.148 86.7439L263.118 103.663L250.063 106.732Z" fill="#5869D1"/>
<path d="M255.845 128.926C260.542 146.81 261.054 169.548 259.787 194.351L253.479 193.562L242.046 146.267L235.738 194.351L228.641 193.957C226.521 167.933 224.457 145.591 227.853 130.896L255.845 128.926Z" fill="#2F2E41"/>
<path d="M248.58 71.3778C246.773 73.3014 243.418 72.2687 243.183 69.6408C243.165 69.4367 243.166 69.2314 243.187 69.0276C243.309 67.8636 243.981 66.8067 243.82 65.5776C243.784 65.2717 243.67 64.9802 243.489 64.7307C242.049 62.8037 238.67 65.5926 237.312 63.8481C236.479 62.7785 237.458 61.0943 236.819 59.8988C235.975 58.3209 233.476 59.0992 231.909 58.2351C230.165 57.2736 230.269 54.5992 231.417 52.9725C232.817 50.9886 235.271 49.93 237.695 49.7774C240.119 49.6249 242.526 50.2799 244.788 51.1614C247.359 52.163 249.909 53.5472 251.491 55.8072C253.415 58.5555 253.6 62.2503 252.638 65.4639C252.053 67.4188 250.055 69.8069 248.58 71.3778Z" fill="#2F2E41"/>
<path d="M332.04 204.805H40.9656C40.8414 204.805 40.7223 204.755 40.6346 204.667C40.5468 204.579 40.4976 204.46 40.4976 204.336C40.4976 204.211 40.5468 204.092 40.6346 204.004C40.7223 203.916 40.8414 203.867 40.9656 203.866H332.04C332.164 203.867 332.283 203.916 332.371 204.004C332.459 204.092 332.508 204.211 332.508 204.336C332.508 204.46 332.459 204.579 332.371 204.667C332.283 204.755 332.164 204.805 332.04 204.805Z" fill="#3F3D56"/>
<path d="M185.78 161.789H134.527C133.852 161.792 133.203 161.528 132.722 161.054C132.242 160.58 131.969 159.935 131.964 159.26V44.8969C131.969 44.2222 132.242 43.577 132.722 43.103C133.203 42.629 133.852 42.3649 134.527 42.3685H185.78C186.455 42.3649 187.104 42.629 187.584 43.103C188.064 43.577 188.337 44.2222 188.342 44.8969V159.26C188.337 159.935 188.064 160.58 187.584 161.054C187.104 161.528 186.455 161.792 185.78 161.789Z" fill="white"/>
<path d="M188.342 79.3729H131.964V80.1611H188.342V79.3729Z" fill="#EDF0FE"/>
<path d="M188.539 124.347H132.161V125.135H188.539V124.347Z" fill="#EDF0FE"/>
<path d="M150.494 42.3685H149.706V162.183H150.494V42.3685Z" fill="#EDF0FE"/>
<path d="M170.206 42.3685H169.418V162.183H170.206V42.3685Z" fill="#EDF0FE"/>
</g>
<defs>
<clipPath id="clip0_75_18691">
<rect width="343" height="205" fill="white" transform="translate(0.875)"/>
</clipPath>
</defs>
</svg>
